<mxfile host="app.diagrams.net" modified="2021-01-05T11:30:08.461Z" agent="5.0 (Windows NT 6.3; Win64; x64) AppleWebKit/537.36 (KHTML, like Gecko) Chrome/86.0.4240.193 Safari/537.36" etag="3Ct1yfBn36oJIjh5aTYY" version="14.1.8" type="github">
  <diagram id="R2lEEEUBdFMjLlhIrx00" name="Page-1">
    <mxGraphModel dx="905" dy="684" grid="1" gridSize="10" guides="1" tooltips="1" connect="1" arrows="1" fold="1" page="1" pageScale="1" pageWidth="850" pageHeight="1100" math="0" shadow="0" extFonts="Permanent Marker^https://fonts.googleapis.com/css?family=Permanent+Marker">
      <root>
        <mxCell id="0" />
        <mxCell id="1" parent="0" />
        <mxCell id="lb9JI9_FD7YLYeVPfku9-1" value="巡查记录" style="whiteSpace=wrap;html=1;align=center;" vertex="1" parent="1">
          <mxGeometry x="220" y="490" width="100" height="40" as="geometry" />
        </mxCell>
        <mxCell id="lb9JI9_FD7YLYeVPfku9-2" value="巡查事项" style="whiteSpace=wrap;html=1;align=center;" vertex="1" parent="1">
          <mxGeometry x="520" y="490" width="100" height="40" as="geometry" />
        </mxCell>
        <mxCell id="lb9JI9_FD7YLYeVPfku9-3" value="巡查报告" style="whiteSpace=wrap;html=1;align=center;" vertex="1" parent="1">
          <mxGeometry x="220" y="680" width="100" height="40" as="geometry" />
        </mxCell>
        <mxCell id="lb9JI9_FD7YLYeVPfku9-4" value="巡查公文" style="whiteSpace=wrap;html=1;align=center;" vertex="1" parent="1">
          <mxGeometry x="220" y="270" width="100" height="40" as="geometry" />
        </mxCell>
        <mxCell id="lb9JI9_FD7YLYeVPfku9-5" value="巡查照片" style="whiteSpace=wrap;html=1;align=center;" vertex="1" parent="1">
          <mxGeometry x="520" y="320" width="100" height="40" as="geometry" />
        </mxCell>
        <mxCell id="lb9JI9_FD7YLYeVPfku9-6" value="巡查报告" style="whiteSpace=wrap;html=1;align=center;" vertex="1" parent="1">
          <mxGeometry x="420" y="810" width="100" height="40" as="geometry" />
        </mxCell>
        <mxCell id="lb9JI9_FD7YLYeVPfku9-7" value="巡查附件" style="whiteSpace=wrap;html=1;align=center;" vertex="1" parent="1">
          <mxGeometry x="210" y="890" width="100" height="40" as="geometry" />
        </mxCell>
        <mxCell id="lb9JI9_FD7YLYeVPfku9-8" value="巡查路线" style="whiteSpace=wrap;html=1;align=center;" vertex="1" parent="1">
          <mxGeometry x="420" y="890" width="100" height="40" as="geometry" />
        </mxCell>
        <mxCell id="lb9JI9_FD7YLYeVPfku9-9" value="巡查处置记录" style="whiteSpace=wrap;html=1;align=center;" vertex="1" parent="1">
          <mxGeometry x="210" y="970" width="100" height="40" as="geometry" />
        </mxCell>
        <mxCell id="lb9JI9_FD7YLYeVPfku9-10" value="巡查处置附件" style="whiteSpace=wrap;html=1;align=center;" vertex="1" parent="1">
          <mxGeometry x="420" y="970" width="100" height="40" as="geometry" />
        </mxCell>
        <mxCell id="lb9JI9_FD7YLYeVPfku9-11" value="巡查处置照片" style="whiteSpace=wrap;html=1;align=center;" vertex="1" parent="1">
          <mxGeometry x="580" y="940" width="100" height="40" as="geometry" />
        </mxCell>
        <mxCell id="lb9JI9_FD7YLYeVPfku9-12" value="发现" style="shape=rhombus;perimeter=rhombusPerimeter;whiteSpace=wrap;html=1;align=center;" vertex="1" parent="1">
          <mxGeometry x="360" y="480" width="120" height="60" as="geometry" />
        </mxCell>
        <mxCell id="lb9JI9_FD7YLYeVPfku9-13" value="" style="endArrow=none;html=1;rounded=0;entryX=0;entryY=0.5;entryDx=0;entryDy=0;" edge="1" parent="1" target="lb9JI9_FD7YLYeVPfku9-12">
          <mxGeometry relative="1" as="geometry">
            <mxPoint x="320" y="510" as="sourcePoint" />
            <mxPoint x="390" y="510" as="targetPoint" />
          </mxGeometry>
        </mxCell>
        <mxCell id="lb9JI9_FD7YLYeVPfku9-14" value="1" style="resizable=0;html=1;align=right;verticalAlign=bottom;" connectable="0" vertex="1" parent="lb9JI9_FD7YLYeVPfku9-13">
          <mxGeometry x="1" relative="1" as="geometry" />
        </mxCell>
        <mxCell id="lb9JI9_FD7YLYeVPfku9-15" value="" style="endArrow=none;html=1;rounded=0;exitX=1;exitY=0.5;exitDx=0;exitDy=0;entryX=0;entryY=0.5;entryDx=0;entryDy=0;" edge="1" parent="1" source="lb9JI9_FD7YLYeVPfku9-12" target="lb9JI9_FD7YLYeVPfku9-2">
          <mxGeometry relative="1" as="geometry">
            <mxPoint x="450" y="590" as="sourcePoint" />
            <mxPoint x="610" y="590" as="targetPoint" />
          </mxGeometry>
        </mxCell>
        <mxCell id="lb9JI9_FD7YLYeVPfku9-16" value="N" style="resizable=0;html=1;align=right;verticalAlign=bottom;" connectable="0" vertex="1" parent="lb9JI9_FD7YLYeVPfku9-15">
          <mxGeometry x="1" relative="1" as="geometry" />
        </mxCell>
        <mxCell id="lb9JI9_FD7YLYeVPfku9-17" value="撰写" style="shape=rhombus;perimeter=rhombusPerimeter;whiteSpace=wrap;html=1;align=center;" vertex="1" parent="1">
          <mxGeometry x="210" y="580" width="120" height="60" as="geometry" />
        </mxCell>
        <mxCell id="lb9JI9_FD7YLYeVPfku9-18" value="" style="endArrow=none;html=1;rounded=0;exitX=0.5;exitY=1;exitDx=0;exitDy=0;entryX=0.5;entryY=0;entryDx=0;entryDy=0;" edge="1" parent="1" source="lb9JI9_FD7YLYeVPfku9-1" target="lb9JI9_FD7YLYeVPfku9-17">
          <mxGeometry relative="1" as="geometry">
            <mxPoint x="400" y="600" as="sourcePoint" />
            <mxPoint x="560" y="600" as="targetPoint" />
          </mxGeometry>
        </mxCell>
        <mxCell id="lb9JI9_FD7YLYeVPfku9-19" value="1" style="resizable=0;html=1;align=right;verticalAlign=bottom;" connectable="0" vertex="1" parent="lb9JI9_FD7YLYeVPfku9-18">
          <mxGeometry x="1" relative="1" as="geometry" />
        </mxCell>
        <mxCell id="lb9JI9_FD7YLYeVPfku9-20" value="" style="endArrow=none;html=1;rounded=0;exitX=0.5;exitY=1;exitDx=0;exitDy=0;entryX=0.5;entryY=0;entryDx=0;entryDy=0;" edge="1" parent="1" source="lb9JI9_FD7YLYeVPfku9-17" target="lb9JI9_FD7YLYeVPfku9-3">
          <mxGeometry relative="1" as="geometry">
            <mxPoint x="420" y="630" as="sourcePoint" />
            <mxPoint x="580" y="630" as="targetPoint" />
          </mxGeometry>
        </mxCell>
        <mxCell id="lb9JI9_FD7YLYeVPfku9-21" value="N" style="resizable=0;html=1;align=right;verticalAlign=bottom;" connectable="0" vertex="1" parent="lb9JI9_FD7YLYeVPfku9-20">
          <mxGeometry x="1" relative="1" as="geometry" />
        </mxCell>
        <mxCell id="lb9JI9_FD7YLYeVPfku9-22" value="撰写" style="shape=rhombus;perimeter=rhombusPerimeter;whiteSpace=wrap;html=1;align=center;" vertex="1" parent="1">
          <mxGeometry x="210" y="360" width="120" height="60" as="geometry" />
        </mxCell>
        <mxCell id="lb9JI9_FD7YLYeVPfku9-23" value="" style="endArrow=none;html=1;rounded=0;exitX=0.5;exitY=0;exitDx=0;exitDy=0;entryX=0.5;entryY=1;entryDx=0;entryDy=0;" edge="1" parent="1" source="lb9JI9_FD7YLYeVPfku9-1" target="lb9JI9_FD7YLYeVPfku9-22">
          <mxGeometry relative="1" as="geometry">
            <mxPoint x="320" y="450" as="sourcePoint" />
            <mxPoint x="480" y="450" as="targetPoint" />
          </mxGeometry>
        </mxCell>
        <mxCell id="lb9JI9_FD7YLYeVPfku9-24" value="1" style="resizable=0;html=1;align=right;verticalAlign=bottom;" connectable="0" vertex="1" parent="lb9JI9_FD7YLYeVPfku9-23">
          <mxGeometry x="1" relative="1" as="geometry">
            <mxPoint y="40" as="offset" />
          </mxGeometry>
        </mxCell>
        <mxCell id="lb9JI9_FD7YLYeVPfku9-25" value="" style="endArrow=none;html=1;rounded=0;exitX=0.5;exitY=0;exitDx=0;exitDy=0;entryX=0.5;entryY=1;entryDx=0;entryDy=0;" edge="1" parent="1" source="lb9JI9_FD7YLYeVPfku9-22" target="lb9JI9_FD7YLYeVPfku9-4">
          <mxGeometry relative="1" as="geometry">
            <mxPoint x="400" y="330" as="sourcePoint" />
            <mxPoint x="560" y="330" as="targetPoint" />
          </mxGeometry>
        </mxCell>
        <mxCell id="lb9JI9_FD7YLYeVPfku9-26" value="N" style="resizable=0;html=1;align=right;verticalAlign=bottom;" connectable="0" vertex="1" parent="lb9JI9_FD7YLYeVPfku9-25">
          <mxGeometry x="1" relative="1" as="geometry">
            <mxPoint y="30" as="offset" />
          </mxGeometry>
        </mxCell>
        <mxCell id="lb9JI9_FD7YLYeVPfku9-27" value="拍摄" style="shape=rhombus;perimeter=rhombusPerimeter;whiteSpace=wrap;html=1;align=center;" vertex="1" parent="1">
          <mxGeometry x="510" y="390" width="120" height="60" as="geometry" />
        </mxCell>
        <mxCell id="lb9JI9_FD7YLYeVPfku9-28" value="" style="endArrow=none;html=1;rounded=0;exitX=0.5;exitY=0;exitDx=0;exitDy=0;entryX=0.5;entryY=1;entryDx=0;entryDy=0;" edge="1" parent="1" source="lb9JI9_FD7YLYeVPfku9-2" target="lb9JI9_FD7YLYeVPfku9-27">
          <mxGeometry relative="1" as="geometry">
            <mxPoint x="630" y="470" as="sourcePoint" />
            <mxPoint x="790" y="470" as="targetPoint" />
          </mxGeometry>
        </mxCell>
        <mxCell id="lb9JI9_FD7YLYeVPfku9-29" value="1" style="resizable=0;html=1;align=right;verticalAlign=bottom;" connectable="0" vertex="1" parent="lb9JI9_FD7YLYeVPfku9-28">
          <mxGeometry x="1" relative="1" as="geometry">
            <mxPoint y="30" as="offset" />
          </mxGeometry>
        </mxCell>
        <mxCell id="lb9JI9_FD7YLYeVPfku9-30" value="" style="endArrow=none;html=1;rounded=0;exitX=0.5;exitY=0;exitDx=0;exitDy=0;entryX=0.5;entryY=1;entryDx=0;entryDy=0;" edge="1" parent="1" source="lb9JI9_FD7YLYeVPfku9-27" target="lb9JI9_FD7YLYeVPfku9-5">
          <mxGeometry relative="1" as="geometry">
            <mxPoint x="650" y="380" as="sourcePoint" />
            <mxPoint x="810" y="380" as="targetPoint" />
          </mxGeometry>
        </mxCell>
        <mxCell id="lb9JI9_FD7YLYeVPfku9-31" value="N" style="resizable=0;html=1;align=right;verticalAlign=bottom;" connectable="0" vertex="1" parent="lb9JI9_FD7YLYeVPfku9-30">
          <mxGeometry x="1" relative="1" as="geometry">
            <mxPoint y="22" as="offset" />
          </mxGeometry>
        </mxCell>
      </root>
    </mxGraphModel>
  </diagram>
</mxfile>
